<svg version="1.1" viewBox="0.0 0.0 500.0 500.0" fill="none" stroke="none" stroke-linecap="square" stroke-miterlimit="10" xmlns:xlink="http://www.w3.org/1999/xlink" xmlns="http://www.w3.org/2000/svg"><clipPath id="p.0"><path d="m0 0l500.0 0l0 500.0l-500.0 0l0 -500.0z" clip-rule="nonzero"/></clipPath><g clip-path="url(#p.0)"><path fill="#ffffff" d="m0 0l500.0 0l0 500.0l-500.0 0z" fill-rule="evenodd"/><path fill="#ffffff" d="m250.00107 0c-138.07208 0 -250.00107 111.92899 -250.00107 250.00107c0 138.07208 111.92899 250.00107 250.00107 250.00107c138.07208 0 250.00107 -111.928986 250.00107 -250.00107c0 -138.07208 -111.928986 -250.00107 -250.00107 -250.00107z" fill-rule="evenodd"/><path fill="#000000" fill-opacity="0.0" d="m46.905956 93.227516l406.19022 0l0 313.54712l-406.19022 0z" fill-rule="evenodd"/><path fill="#000000" d="m113.03627 332.0323l0 -165.78125l33.9375 0l0 66.984375l72.203125 0l0 -66.984375l34.046875 0l0 165.78125l-34.046875 0l0 -70.65625l-72.203125 0l0 70.65625l-33.9375 0zm170.22697 0l0 -165.78125l109.03125 0l0 28.15625l-75.09375 0l0 46.28125l67.765625 0l0 27.703125l-67.765625 0l0 63.640625l-33.9375 0z" fill-rule="nonzero"/></g></svg>